<?xml version="1.0" encoding="UTF-8" standalone="no"?>
<!-- Created with Inkscape (http://www.inkscape.org/) -->

<svg
   xmlns:dc="http://purl.org/dc/elements/1.1/"
   xmlns:cc="http://creativecommons.org/ns#"
   xmlns:rdf="http://www.w3.org/1999/02/22-rdf-syntax-ns#"
   xmlns:svg="http://www.w3.org/2000/svg"
   xmlns="http://www.w3.org/2000/svg"
   xmlns:sodipodi="http://sodipodi.sourceforge.net/DTD/sodipodi-0.dtd"
   xmlns:inkscape="http://www.inkscape.org/namespaces/inkscape"
   width="150"
   height="15"
   viewBox="0 0 140.625 14.0625"
   id="svg2"
   version="1.1"
   inkscape:version="0.92.3 (2405546, 2018-03-11)"
   sodipodi:docname="email.svg">
  <defs
     id="defs4" />
  <sodipodi:namedview
     id="base"
     pagecolor="#ffffff"
     bordercolor="#666666"
     borderopacity="1.0"
     inkscape:pageopacity="0.0"
     inkscape:pageshadow="2"
     inkscape:zoom="5.54"
     inkscape:cx="75"
     inkscape:cy="7.5"
     inkscape:document-units="px"
     inkscape:current-layer="layer1"
     showgrid="false"
     inkscape:window-width="1377"
     inkscape:window-height="836"
     inkscape:window-x="63"
     inkscape:window-y="27"
     inkscape:window-maximized="1"
     units="px" />
  <metadata
     id="metadata7">
    <rdf:RDF>
      <cc:Work
         rdf:about="">
        <dc:format>image/svg+xml</dc:format>
        <dc:type
           rdf:resource="http://purl.org/dc/dcmitype/StillImage" />
        <dc:title></dc:title>
      </cc:Work>
    </rdf:RDF>
  </metadata>
  <g
     inkscape:label="Layer 1"
     inkscape:groupmode="layer"
     id="layer1"
     transform="translate(0,-1038.2997)">
    <g
       aria-label="support@libreops.cc"
       style="font-style:normal;font-weight:normal;line-height:0%;font-family:sans-serif;letter-spacing:0px;word-spacing:0px;fill:#000000;fill-opacity:1;stroke:none;stroke-width:1px;stroke-linecap:butt;stroke-linejoin:miter;stroke-opacity:1"
       id="text4136">
      <path
         d="m 6.9140692,1047.261 q 0,1.0747 -0.7603133,1.6888 -0.7603133,0.6068 -2.1639686,0.6068 -0.9577024,0 -1.7180157,-0.3582 -0.7603133,-0.3656 -1.1112271,-1.0235 l 1.0088773,-0.6141 q 0.5775456,0.9284 1.856919,0.9284 0.8334203,0 1.2428198,-0.3143 0.4167102,-0.3217 0.4167102,-0.8627 0,-0.3217 -0.1462141,-0.5191 -0.1462141,-0.2047 -0.4532637,-0.3509 -0.3070496,-0.1535 -1.2574412,-0.4094 -1.3671018,-0.3143 -1.9300261,-0.8699 -0.5556136,-0.5557 -0.5556136,-1.4768 0,-1.0162 0.7310705,-1.6303 0.7310705,-0.6141 2.0250652,-0.6141 1.0015666,0 1.6814621,0.3948 0.6798956,0.3948 0.9942559,0.9504 l -1.0015666,0.6141 q -0.5994778,-0.8992 -1.7033942,-0.8992 -0.6287206,0 -1.0673629,0.2778 -0.4313316,0.2778 -0.4313316,0.8626 0,0.5191 0.3801567,0.753 0.3801566,0.234 1.1916449,0.4314 1.3013054,0.3363 1.7984333,0.6287 0.497128,0.2924 0.7310705,0.7237 0.2412533,0.4241 0.2412533,1.082 z"
         style="font-style:normal;font-variant:normal;font-weight:normal;font-stretch:normal;font-size:14.97232342px;line-height:1.25;font-family:'Clear Sans';-inkscape-font-specification:'Clear Sans';fill:#000000;fill-opacity:1"
         id="path833" />
      <path
         d="m 13.683782,1049.33 v -1.1405 q -0.584857,0.5848 -1.286684,0.9796 -0.701828,0.3875 -1.374413,0.3875 -0.767624,0 -1.2501302,-0.2851 -0.4751958,-0.2925 -0.694517,-0.87 -0.2120104,-0.5849 -0.2120104,-1.6157 v -5.1248 h 1.2574416 v 4.5254 q 0,1.0966 0.10966,1.4621 0.116971,0.3655 0.365535,0.5337 0.248564,0.1608 0.72376,0.1608 0.475196,0 1.118538,-0.3655 0.643342,-0.3729 1.24282,-0.8919 v -5.4246 h 1.257441 v 7.669 z"
         style="font-style:normal;font-variant:normal;font-weight:normal;font-stretch:normal;font-size:14.97232342px;line-height:1.25;font-family:'Clear Sans';-inkscape-font-specification:'Clear Sans';fill:#000000;fill-opacity:1"
         id="path835" />
      <path
         d="m 23.918769,1045.4407 q 0,1.8861 -0.82611,3.0047 -0.818799,1.1112 -2.259008,1.1112 -1.14778,0 -2.142036,-0.8554 v 3.5165 h -1.257441 v -10.5567 h 1.257441 v 0.7677 q 0.431332,-0.4168 1.03812,-0.7019 0.606789,-0.2851 1.301306,-0.2851 1.367101,0 2.127415,1.0381 0.760313,1.0308 0.760313,2.9609 z m -1.301306,0.029 q 0,-2.9097 -1.827676,-2.9097 -0.599478,0 -1.14778,0.2998 -0.548303,0.2997 -0.950392,0.6872 v 4.0574 q 0.979634,0.8261 1.97389,0.8261 0.855353,0 1.403656,-0.7164 0.548302,-0.7165 0.548302,-2.2444 z"
         style="font-style:normal;font-variant:normal;font-weight:normal;font-stretch:normal;font-size:14.97232342px;line-height:1.25;font-family:'Clear Sans';-inkscape-font-specification:'Clear Sans';fill:#000000;fill-opacity:1"
         id="path837" />
      <path
         d="m 32.516157,1045.4407 q 0,1.8861 -0.826109,3.0047 -0.818799,1.1112 -2.259008,1.1112 -1.147781,0 -2.142037,-0.8554 v 3.5165 h -1.257441 v -10.5567 h 1.257441 v 0.7677 q 0.431332,-0.4168 1.03812,-0.7019 0.606789,-0.2851 1.301306,-0.2851 1.367102,0 2.127415,1.0381 0.760313,1.0308 0.760313,2.9609 z m -1.301305,0.029 q 0,-2.9097 -1.827676,-2.9097 -0.599478,0 -1.147781,0.2998 -0.548303,0.2997 -0.950392,0.6872 v 4.0574 q 0.979635,0.8261 1.973891,0.8261 0.855352,0 1.403655,-0.7164 0.548303,-0.7165 0.548303,-2.2444 z"
         style="font-style:normal;font-variant:normal;font-weight:normal;font-stretch:normal;font-size:14.97232342px;line-height:1.25;font-family:'Clear Sans';-inkscape-font-specification:'Clear Sans';fill:#000000;fill-opacity:1"
         id="path839" />
      <path
         d="m 40.989264,1045.5138 q 0,1.9958 -0.862663,3.0193 -0.855352,1.0235 -2.500261,1.0235 -1.644908,0 -2.514882,-1.0089 -0.869974,-1.0162 -0.869974,-3.0339 0,-2.0543 0.869974,-3.0632 0.877284,-1.0089 2.514882,-1.0089 1.652219,0 2.507572,1.0308 0.855352,1.0235 0.855352,3.0413 z m -1.301305,0 q 0,-1.5645 -0.51906,-2.2737 -0.511749,-0.7091 -1.542559,-0.7091 -1.060052,0 -1.571801,0.7164 -0.51175,0.7092 -0.51175,2.2664 0,1.4987 0.489818,2.2224 0.497127,0.7238 1.593733,0.7238 1.045431,0 1.54987,-0.7165 0.511749,-0.7164 0.511749,-2.2297 z"
         style="font-style:normal;font-variant:normal;font-weight:normal;font-stretch:normal;font-size:14.97232342px;line-height:1.25;font-family:'Clear Sans';-inkscape-font-specification:'Clear Sans';fill:#000000;fill-opacity:1"
         id="path841" />
      <path
         d="m 47.225297,1042.9038 q -0.2047,-0.088 -0.584857,-0.088 -0.562924,0 -1.089295,0.2632 -0.51906,0.2559 -1.213577,0.9504 v 5.3003 h -1.257441 v -7.669 h 1.257441 v 1.2428 q 0.526371,-0.5336 1.103917,-0.943 0.584856,-0.4167 1.293994,-0.4167 0.475196,0 0.760314,0.1535 z"
         style="font-style:normal;font-variant:normal;font-weight:normal;font-stretch:normal;font-size:14.97232342px;line-height:1.25;font-family:'Clear Sans';-inkscape-font-specification:'Clear Sans';fill:#000000;fill-opacity:1"
         id="path843" />
      <path
         d="m 52.847227,1049.33 q -0.73107,0.2266 -1.44752,0.2266 -1.169712,0 -1.681462,-0.6141 -0.504438,-0.6141 -0.504438,-1.93 v -4.2987 h -1.096606 v -1.0528 h 1.096606 v -2.1347 h 1.257441 v 2.1347 h 1.944647 v 1.0528 h -1.944647 v 4.0574 q 0,0.9285 0.182768,1.3306 0.190078,0.402 0.83342,0.402 0.555613,0 1.030809,-0.2047 z"
         style="font-style:normal;font-variant:normal;font-weight:normal;font-stretch:normal;font-size:14.97232342px;line-height:1.25;font-family:'Clear Sans';-inkscape-font-specification:'Clear Sans';fill:#000000;fill-opacity:1"
         id="path845" />
      <path
         d="m 66.36472,1045.1702 q 0,1.9446 -0.745692,2.9974 -0.745692,1.0454 -2.054308,1.0454 -0.782245,0 -1.213577,-0.2266 -0.424021,-0.2267 -0.570235,-0.8115 -1.067363,0.8407 -2.171279,0.8407 -0.877285,0 -1.476762,-0.424 -0.599478,-0.424 -0.921149,-1.2209 -0.31436,-0.7969 -0.31436,-1.8131 0,-1.7545 0.811488,-2.7269 0.811488,-0.9723 2.259008,-0.9723 0.906527,0 1.754569,0.5995 v -0.3875 h 1.242819 v 5.2857 q 0,0.4752 0.153525,0.6506 0.160836,0.1682 0.548303,0.1682 0.709139,0 1.14047,-0.7896 0.431332,-0.7969 0.431332,-2.1566 0,-2.5076 -1.286684,-3.8528 -1.279374,-1.3452 -3.669974,-1.3452 -1.469452,0 -2.661097,0.6799 -1.191645,0.6799 -1.856919,1.9008 -0.665274,1.2209 -0.665274,2.6904 0,2.3906 1.374413,3.8235 1.381723,1.4329 3.779634,1.4329 1.76188,0 3.128982,-0.329 l 0.241253,1.0454 q -1.35248,0.3144 -3.384856,0.3144 -1.871541,0 -3.289818,-0.775 -1.418276,-0.7676 -2.193211,-2.2005 -0.774935,-1.4402 -0.774935,-3.3264 0,-1.7472 0.804178,-3.1947 0.804177,-1.4476 2.259008,-2.2664 1.45483,-0.8261 3.22402,-0.8261 2.89504,0 4.496084,1.6449 1.601044,1.6376 1.601044,4.5254 z m -4.656919,-1.623 q -0.899216,-0.5776 -1.542558,-0.5776 -1.081985,0 -1.542559,0.6507 -0.453264,0.6506 -0.453264,1.9081 0,2.3175 1.725326,2.3175 0.738382,0 1.813055,-0.775 z"
         style="font-style:normal;font-variant:normal;font-weight:normal;font-stretch:normal;font-size:14.97232342px;line-height:1.25;font-family:'Clear Sans';-inkscape-font-specification:'Clear Sans';fill:#000000;fill-opacity:1"
         id="path847" />
      <path
         d="m 68.550619,1049.33 v -10.8857 h 1.257441 v 10.8857 z"
         style="font-style:normal;font-variant:normal;font-weight:normal;font-stretch:normal;font-size:14.97232342px;line-height:1.25;font-family:'Clear Sans';-inkscape-font-specification:'Clear Sans';fill:#000000;fill-opacity:1"
         id="path849" />
      <path
         d="m 73.807018,1039.7164 q 0,0.4386 -0.197389,0.5995 -0.197389,0.1535 -0.628721,0.1535 -0.460574,0 -0.636031,-0.1974 -0.175457,-0.1974 -0.175457,-0.5556 0,-0.3875 0.190078,-0.5629 0.190078,-0.1828 0.62141,-0.1828 0.445953,0 0.636031,0.1754 0.190079,0.1682 0.190079,0.5703 z m -1.454831,9.6136 v -7.669 h 1.257442 v 7.669 z"
         style="font-style:normal;font-variant:normal;font-weight:normal;font-stretch:normal;font-size:14.97232342px;line-height:1.25;font-family:'Clear Sans';-inkscape-font-specification:'Clear Sans';fill:#000000;fill-opacity:1"
         id="path851" />
      <path
         d="m 82.579863,1045.4407 q 0,1.9373 -0.796867,3.0266 -0.789556,1.0893 -2.215144,1.0893 -0.614099,0 -1.198955,-0.2486 -0.584857,-0.2485 -1.016188,-0.6068 v 0.6288 h -1.257442 v -10.8857 h 1.257442 v 3.9844 q 0.431331,-0.4168 1.03812,-0.7019 0.606788,-0.2851 1.301305,-0.2851 1.418277,0 2.149347,1.0381 0.738382,1.0381 0.738382,2.9609 z m -1.301306,0.029 q 0,-1.5352 -0.467885,-2.2225 -0.467885,-0.6872 -1.359791,-0.6872 -0.584856,0 -1.133159,0.2998 -0.548303,0.2997 -0.965013,0.6872 v 4.0574 q 0.41671,0.3509 0.965013,0.5922 0.548303,0.2339 1.074673,0.2339 0.848042,0 1.367102,-0.7164 0.51906,-0.7165 0.51906,-2.2444 z"
         style="font-style:normal;font-variant:normal;font-weight:normal;font-stretch:normal;font-size:14.97232342px;line-height:1.25;font-family:'Clear Sans';-inkscape-font-specification:'Clear Sans';fill:#000000;fill-opacity:1"
         id="path853" />
      <path
         d="m 88.837826,1042.9038 q -0.204699,-0.088 -0.584856,-0.088 -0.562924,0 -1.089295,0.2632 -0.51906,0.2559 -1.213577,0.9504 v 5.3003 h -1.257441 v -7.669 h 1.257441 v 1.2428 q 0.526371,-0.5336 1.103916,-0.943 0.584857,-0.4167 1.293995,-0.4167 0.475196,0 0.760313,0.1535 z"
         style="font-style:normal;font-variant:normal;font-weight:normal;font-stretch:normal;font-size:14.97232342px;line-height:1.25;font-family:'Clear Sans';-inkscape-font-specification:'Clear Sans';fill:#000000;fill-opacity:1"
         id="path855" />
      <path
         d="m 91.104145,1045.6454 q 0,1.5206 0.51906,2.1712 0.51906,0.6434 1.666841,0.6434 0.511749,0 0.899216,-0.212 0.387468,-0.2193 0.745692,-0.7019 l 1.03812,0.6434 q -0.438642,0.6579 -1.067363,1.0162 -0.62872,0.3509 -1.703394,0.3509 -1.710705,0 -2.558746,-0.9943 -0.840732,-0.9942 -0.840732,-3.0047 0,-2.1055 0.818799,-3.107 0.82611,-1.0089 2.48564,-1.0089 1.491384,0 2.237076,0.8627 0.745692,0.8553 0.745692,2.6391 v 0.7019 z m 3.757702,-0.987 q -0.01462,-1.0308 -0.438642,-1.601 -0.41671,-0.5703 -1.359791,-0.5703 -0.899217,0 -1.352481,0.5191 -0.445953,0.5117 -0.592167,1.6522 z"
         style="font-style:normal;font-variant:normal;font-weight:normal;font-stretch:normal;font-size:14.97232342px;line-height:1.25;font-family:'Clear Sans';-inkscape-font-specification:'Clear Sans';fill:#000000;fill-opacity:1"
         id="path857" />
      <path
         d="m 104.44618,1045.5138 q 0,1.9958 -0.86266,3.0193 -0.85535,1.0235 -2.50026,1.0235 -1.644912,0 -2.514885,-1.0089 -0.869974,-1.0162 -0.869974,-3.0339 0,-2.0543 0.869974,-3.0632 0.877284,-1.0089 2.514885,-1.0089 1.65222,0 2.50757,1.0308 0.85535,1.0235 0.85535,3.0413 z m -1.3013,0 q 0,-1.5645 -0.51906,-2.2737 -0.51175,-0.7091 -1.54256,-0.7091 -1.06006,0 -1.571805,0.7164 -0.511749,0.7092 -0.511749,2.2664 0,1.4987 0.489817,2.2224 0.497128,0.7238 1.593737,0.7238 1.04543,0 1.54987,-0.7165 0.51175,-0.7164 0.51175,-2.2297 z"
         style="font-style:normal;font-variant:normal;font-weight:normal;font-stretch:normal;font-size:14.97232342px;line-height:1.25;font-family:'Clear Sans';-inkscape-font-specification:'Clear Sans';fill:#000000;fill-opacity:1"
         id="path859" />
      <path
         d="m 113.02164,1045.4407 q 0,1.8861 -0.82611,3.0047 -0.8188,1.1112 -2.259,1.1112 -1.14779,0 -2.14204,-0.8554 v 3.5165 h -1.25744 v -10.5567 h 1.25744 v 0.7677 q 0.43133,-0.4168 1.03812,-0.7019 0.60679,-0.2851 1.3013,-0.2851 1.36711,0 2.12742,1.0381 0.76031,1.0308 0.76031,2.9609 z m -1.3013,0.029 q 0,-2.9097 -1.82768,-2.9097 -0.59948,0 -1.14778,0.2998 -0.5483,0.2997 -0.95039,0.6872 v 4.0574 q 0.97963,0.8261 1.97389,0.8261 0.85535,0 1.40365,-0.7164 0.54831,-0.7165 0.54831,-2.2444 z"
         style="font-style:normal;font-variant:normal;font-weight:normal;font-stretch:normal;font-size:14.97232342px;line-height:1.25;font-family:'Clear Sans';-inkscape-font-specification:'Clear Sans';fill:#000000;fill-opacity:1"
         id="path861" />
      <path
         d="m 120.37621,1047.261 q 0,1.0747 -0.76031,1.6888 -0.76031,0.6068 -2.16397,0.6068 -0.9577,0 -1.71802,-0.3582 -0.76031,-0.3656 -1.11122,-1.0235 l 1.00887,-0.6141 q 0.57755,0.9284 1.85692,0.9284 0.83342,0 1.24282,-0.3143 0.41671,-0.3217 0.41671,-0.8627 0,-0.3217 -0.14621,-0.5191 -0.14621,-0.2047 -0.45326,-0.3509 -0.30705,-0.1535 -1.25745,-0.4094 -1.3671,-0.3143 -1.93002,-0.8699 -0.55561,-0.5557 -0.55561,-1.4768 0,-1.0162 0.73107,-1.6303 0.73107,-0.6141 2.02506,-0.6141 1.00157,0 1.68146,0.3948 0.6799,0.3948 0.99426,0.9504 l -1.00157,0.6141 q -0.59948,-0.8992 -1.70339,-0.8992 -0.62872,0 -1.06736,0.2778 -0.43134,0.2778 -0.43134,0.8626 0,0.5191 0.38016,0.753 0.38016,0.234 1.19165,0.4314 1.3013,0.3363 1.79843,0.6287 0.49713,0.2924 0.73107,0.7237 0.24125,0.4241 0.24125,1.082 z"
         style="font-style:normal;font-variant:normal;font-weight:normal;font-stretch:normal;font-size:14.97232342px;line-height:1.25;font-family:'Clear Sans';-inkscape-font-specification:'Clear Sans';fill:#000000;fill-opacity:1"
         id="path863" />
      <path
         d="m 124.06081,1048.6135 q 0,0.4606 -0.21932,0.6433 -0.21201,0.1755 -0.6799,0.1755 -0.51906,0 -0.70183,-0.212 -0.17545,-0.2193 -0.17545,-0.6068 0,-0.4386 0.19739,-0.6287 0.2047,-0.1974 0.67989,-0.1974 0.49713,0 0.69452,0.1974 0.2047,0.1901 0.2047,0.6287 z"
         style="font-style:normal;font-variant:normal;font-weight:normal;font-stretch:normal;font-size:14.97232342px;line-height:1.25;font-family:'Clear Sans';-inkscape-font-specification:'Clear Sans';fill:#000000;fill-opacity:1"
         id="path865" />
      <path
         d="m 131.91982,1048.1456 q -0.35823,0.6141 -0.99426,1.0162 -0.63603,0.3948 -1.75457,0.3948 -1.68877,0 -2.54412,-1.0162 -0.85536,-1.0235 -0.85536,-3.0266 0,-2.0032 0.84804,-3.034 0.84805,-1.0381 2.50027,-1.0381 1.89347,0 2.69765,1.4037 l -1.03081,0.6287 q -0.28512,-0.446 -0.67259,-0.6945 -0.38015,-0.2486 -1.00888,-0.2486 -1.10391,0 -1.5718,0.8042 -0.46057,0.7968 -0.46057,2.2078 0,1.0747 0.21932,1.6742 0.21932,0.5994 0.6799,0.9211 0.46788,0.3217 1.18433,0.3217 0.6141,0 1.00157,-0.2266 0.38746,-0.234 0.73107,-0.7165 z"
         style="font-style:normal;font-variant:normal;font-weight:normal;font-stretch:normal;font-size:14.97232342px;line-height:1.25;font-family:'Clear Sans';-inkscape-font-specification:'Clear Sans';fill:#000000;fill-opacity:1"
         id="path867" />
      <path
         d="m 139.46446,1048.1456 q -0.35823,0.6141 -0.99426,1.0162 -0.63603,0.3948 -1.75457,0.3948 -1.68877,0 -2.54412,-1.0162 -0.85536,-1.0235 -0.85536,-3.0266 0,-2.0032 0.84804,-3.034 0.84805,-1.0381 2.50027,-1.0381 1.89347,0 2.69765,1.4037 l -1.03081,0.6287 q -0.28512,-0.446 -0.67259,-0.6945 -0.38016,-0.2486 -1.00888,-0.2486 -1.10391,0 -1.5718,0.8042 -0.46057,0.7968 -0.46057,2.2078 0,1.0747 0.21932,1.6742 0.21932,0.5994 0.67989,0.9211 0.46789,0.3217 1.18434,0.3217 0.6141,0 1.00157,-0.2266 0.38746,-0.234 0.73107,-0.7165 z"
         style="font-style:normal;font-variant:normal;font-weight:normal;font-stretch:normal;font-size:14.97232342px;line-height:1.25;font-family:'Clear Sans';-inkscape-font-specification:'Clear Sans';fill:#000000;fill-opacity:1"
         id="path869" />
    </g>
  </g>
</svg>
