<?xml version="1.0" encoding="UTF-8" standalone="no"?>
<svg
   xmlns:dc="http://purl.org/dc/elements/1.1/"
   xmlns:cc="http://creativecommons.org/ns#"
   xmlns:rdf="http://www.w3.org/1999/02/22-rdf-syntax-ns#"
   xmlns:svg="http://www.w3.org/2000/svg"
   xmlns="http://www.w3.org/2000/svg"
   height="200"
   width="300"
   id="svg22"
   xml:space="preserve"
   enable-background="new 0 0 50 50"
   viewBox="0 0 300 200"
   y="0px"
   x="0px"
   version="1.1"><metadata
     id="metadata28"><rdf:RDF><cc:Work
         rdf:about=""><dc:format>image/svg+xml</dc:format><dc:type
           rdf:resource="http://purl.org/dc/dcmitype/StillImage" /><dc:title></dc:title></cc:Work></rdf:RDF></metadata><defs
     id="defs26" /><g
     transform="matrix(6.848846,0,0,6.848846,-17.622081,-61.738923)"
     id="g16"><path
       style="fill:#000000"
       id="path2"
       d="M 43.007,9.225 H 5.943 c -1.859,0 -3.37,1.512 -3.37,3.371 v 22.039 c 0,1.859 1.511,3.371 3.37,3.371 h 37.064 c 1.858,0 3.369,-1.512 3.369,-3.371 V 12.596 c 0,-1.859 -1.511,-3.371 -3.369,-3.371 z M 5.943,11.473 h 37.064 c 0.621,0 1.124,0.501 1.124,1.123 v 3.781 H 4.819 v -3.781 c 0,-0.62 0.502,-1.123 1.124,-1.123 z M 43.007,35.758 H 5.943 c -0.622,0 -1.124,-0.5 -1.124,-1.123 V 18.623 h 39.312 v 16.012 c 0,0.623 -0.503,1.123 -1.124,1.123 z" /><circle
       style="fill:#000000"
       id="circle4"
       r="1.2029999"
       cy="13.989"
       cx="7.9089999" /><circle
       style="fill:#000000"
       id="circle6"
       r="1.2029999"
       cy="13.989"
       cx="11.278" /><circle
       style="fill:#000000"
       id="circle8"
       r="1.2029999"
       cy="13.989"
       cx="14.647" /><path
       style="fill:#000000"
       id="path10"
       d="m 24.533,21.12 c -1.811,0 -3.276,1.386 -3.276,3.098 v 5.507 c 0,1.709 1.469,3.094 3.276,3.094 1.807,0 3.274,-1.385 3.274,-3.094 V 24.218 C 27.812,22.506 26.345,21.12 24.533,21.12 Z m 1.033,8.605 c 0,0.459 -0.475,0.848 -1.033,0.848 -0.556,0 -1.026,-0.389 -1.026,-0.848 v -5.507 c 0,-0.469 0.459,-0.852 1.026,-0.852 0.567,0 1.033,0.383 1.033,0.852 z" /><path
       style="fill:#000000"
       id="path12"
       d="m 19.327,26.08 h -2.513 l 1.439,-3.401 c 0.245,-0.57 -0.023,-1.229 -0.594,-1.472 -0.564,-0.241 -1.229,0.023 -1.474,0.594 l -2.106,4.961 v 0 c -0.015,0.034 -0.013,0.079 -0.026,0.116 -0.075,0.256 -0.073,0.518 0.023,0.748 0.027,0.066 0.077,0.119 0.116,0.176 0.039,0.062 0.071,0.131 0.123,0.184 0.094,0.096 0.212,0.176 0.337,0.232 0.009,0.006 0.013,0.012 0.022,0.014 v 0 c 0.135,0.057 0.283,0.092 0.438,0.092 H 18.2 v 3.463 c 0,0.619 0.503,1.123 1.125,1.123 0.619,0 1.123,-0.504 1.123,-1.123 V 27.201 C 20.449,26.583 19.945,26.08 19.327,26.08 Z" /><path
       style="fill:#000000"
       id="path14"
       d="M 33.833,26.08 H 31.316 L 32.76,22.679 C 33.003,22.109 32.737,21.45 32.164,21.207 31.6,20.966 30.935,21.23 30.69,21.801 l -2.105,4.961 v 0 c -0.016,0.034 -0.013,0.079 -0.024,0.116 -0.076,0.256 -0.074,0.518 0.022,0.748 0.026,0.066 0.076,0.119 0.113,0.176 0.04,0.062 0.072,0.131 0.123,0.184 0.098,0.096 0.216,0.176 0.341,0.232 0.009,0.006 0.013,0.012 0.021,0.014 v 0 c 0.136,0.057 0.28,0.092 0.439,0.092 h 3.089 v 3.463 c 0,0.619 0.501,1.123 1.122,1.123 0.622,0 1.123,-0.504 1.123,-1.123 V 27.201 C 34.956,26.583 34.455,26.08 33.833,26.08 Z" /></g></svg>