<?xml version="1.0" encoding="UTF-8" standalone="no"?>
<svg
   xmlns:dc="http://purl.org/dc/elements/1.1/"
   xmlns:cc="http://creativecommons.org/ns#"
   xmlns:rdf="http://www.w3.org/1999/02/22-rdf-syntax-ns#"
   xmlns:svg="http://www.w3.org/2000/svg"
   xmlns="http://www.w3.org/2000/svg"
   height="105"
   width="800"
   id="svg12"
   xml:space="preserve"
   enable-background="new 0 0 100 50"
   viewBox="0 0 800 105"
   y="0px"
   x="0px"
   version="1.1"><metadata
     id="metadata18"><rdf:RDF><cc:Work
         rdf:about=""><dc:format>image/svg+xml</dc:format><dc:type
           rdf:resource="http://purl.org/dc/dcmitype/StillImage" /><dc:title></dc:title></cc:Work></rdf:RDF></metadata><defs
     id="defs16">
</defs><g
     id="g57"><g
       id="g2135"
       transform="matrix(0.99720894,0,0,0.99720894,-21.274107,4.392785)"><polygon
         transform="matrix(2,0,0,2,25,0)"
         id="polygon2"
         points="75,50 100,25 75,0 75,11.314 88.686,25 75,38.686 " /><polygon
         transform="matrix(2,0,0,2,25,0)"
         id="polygon4"
         points="25,0 0,25 25,50 25,38.686 11.314,25 25,11.314 " /><circle
         style="fill:#d40000;fill-opacity:1;stroke-width:2"
         id="circle6"
         r="12"
         cy="52"
         cx="125" /><circle
         style="fill:#d40000;fill-opacity:1;stroke-width:2"
         id="circle8"
         r="12"
         cy="52"
         cx="89" /><circle
         style="fill:#d40000;fill-opacity:1;stroke-width:2"
         id="circle10"
         r="12"
         cy="52"
         cx="161" /></g><g
       aria-label="LibreDNS"
       style="font-style:normal;font-weight:normal;font-size:142.61758423px;line-height:1.25;font-family:sans-serif;letter-spacing:0px;word-spacing:0px;fill:#d40000;fill-opacity:1;stroke:none;stroke-width:3.56543994"
       id="text1500"><path
         d="m 240.42778,1.4434213 h 1.04456 q 4.73535,0.9749249 4.73535,4.1782495 V 90.997236 h 42.96633 q 4.24789,0 5.0139,5.501362 -1.39275,4.735352 -5.0139,4.735352 h -48.18914 q -4.03898,0 -5.0139,-5.292452 V 7.2233332 q 0.62674,-5.7799119 4.4568,-5.7799119 z"
         style="font-style:normal;font-variant:normal;font-weight:normal;font-stretch:normal;font-family:Comfortaa;-inkscape-font-specification:Comfortaa;fill:#000000;stroke-width:3.56543994"
         id="path25" /><path
         d="m 314.45243,11.680133 q 5.0139,1.253475 5.0139,4.456799 v 1.532025 q 0,3.690787 -5.50136,4.4568 -3.55151,0 -4.73535,-5.222812 1.04456,-5.222812 5.22281,-5.222812 z m 0,17.827198 q 5.0139,1.253475 5.0139,4.456799 v 62.534468 q 0,3.899702 -5.0139,4.735352 h -0.27855 q -3.96934,0 -4.94426,-5.222814 V 35.496155 q 0.62674,-5.988824 5.22281,-5.988824 z"
         style="font-style:normal;font-variant:normal;font-weight:normal;font-stretch:normal;font-family:Comfortaa;-inkscape-font-specification:Comfortaa;fill:#000000;stroke-width:3.56543994"
         id="path27" /><path
         d="m 342.02888,1.5130588 h 0.76601 q 4.73535,1.0445624 4.73535,4.526437 V 40.231504 q 11.49019,-11.072361 25.83551,-11.072361 13.85786,0 25.20877,10.515262 10.79381,11.350911 10.79381,25.487322 0,20.26451 -19.21994,31.893971 -8.28687,4.178252 -16.01663,4.178252 h -2.08912 q -14.55424,0 -27.08899,-13.648951 -7.66012,-10.236711 -7.66012,-24.233847 V 6.0394958 q 0,-3.4818746 4.73535,-4.526437 z m 5.50136,62.8826552 v 1.323113 q 0,16.08626 16.85227,23.955297 4.52644,1.323112 8.14759,1.323112 h 1.60166 q 15.66844,0 23.67675,-16.852273 1.32311,-5.083537 1.32311,-7.869036 v -1.601663 q 0,-16.016623 -17.13082,-23.955297 -5.22281,-1.323112 -8.14759,-1.323112 h -1.04456 q -15.66844,0 -23.67675,16.573723 -1.60166,4.665712 -1.60166,8.426136 z"
         style="font-style:normal;font-variant:normal;font-weight:normal;font-stretch:normal;font-family:Comfortaa;-inkscape-font-specification:Comfortaa;fill:#000000;stroke-width:3.56543994"
         id="path29" /><path
         d="m 430.1203,29.437693 q 5.0139,1.253475 5.0139,4.4568 v 5.779912 q 11.49018,-10.236712 24.58203,-10.236712 7.03339,0 14.97206,3.412237 2.08913,2.158763 2.08913,4.17825 v 0.27855 q -0.83565,4.944262 -4.94427,4.944262 h -0.27855 q -7.17266,-2.298037 -10.79381,-2.298037 h -1.53202 q -15.38989,0 -22.56255,15.946985 -1.53202,4.247887 -1.53202,9.679612 v 30.919046 q 0,3.899702 -5.0139,4.735352 h -0.27855 q -3.96934,0 -4.94427,-5.222814 V 35.496155 q 0.62674,-6.058462 5.22282,-6.058462 z"
         style="font-style:normal;font-variant:normal;font-weight:normal;font-stretch:normal;font-family:Comfortaa;-inkscape-font-specification:Comfortaa;fill:#000000;stroke-width:3.56543994"
         id="path31" /><path
         d="m 520.16158,29.855518 q 20.6127,0 32.03324,19.568135 3.8997,7.660125 3.8997,16.643361 v 1.323112 q -0.90528,5.222812 -4.94426,5.222812 h -54.94398 q 3.06405,10.375987 13.23112,15.877349 5.98883,2.298037 11.21164,2.298037 6.05846,0 13.85786,-3.8997 h 1.53203 q 4.66571,0.905288 4.66571,4.73535 v 0.766012 q 0,6.40665 -18.73249,8.843964 h -1.81057 q -19.21995,0 -30.77977,-17.966475 -4.66572,-8.495774 -4.66572,-17.757561 0,-19.568135 18.52358,-31.197596 8.98323,-4.4568 16.92191,-4.4568 z m -24.79095,32.590347 h 50.06936 q 0,-5.362087 -6.26738,-13.857861 -8.56541,-8.07795 -16.92191,-8.07795 h -2.85513 q -12.53475,0 -20.6127,12.256199 -2.7855,4.874625 -3.41224,9.679612 z"
         style="font-style:normal;font-variant:normal;font-weight:normal;font-stretch:normal;font-family:Comfortaa;-inkscape-font-specification:Comfortaa;fill:#000000;stroke-width:3.56543994"
         id="path33" /><path
         d="m 572.52897,0.88632135 1.32312,0.27854995 h 13.44003 l 2.92478,-0.27854995 q 22.49291,0 39.06663,19.56813565 10.5849,13.718586 10.5849,31.127959 0,23.955297 -21.10016,40.389745 -13.3704,9.261789 -28.27282,9.261789 h -17.96648 q -5.0139,-0.90529 -5.0139,-5.013902 V 6.1787708 q 0.76602,-5.0138995 5.0139,-5.0138995 z M 577.82142,11.19267 v 79.734929 h 11.35091 q 25.13914,0 37.25606,-24.303485 3.13369,-8.286862 3.13369,-15.807711 0,-18.175385 -16.08626,-31.685059 -9.95816,-7.938674 -29.59593,-7.938674 z"
         style="font-style:normal;font-variant:normal;font-weight:normal;font-stretch:normal;font-family:Comfortaa;-inkscape-font-specification:Comfortaa;stroke-width:3.56543994"
         id="path35" /><path
         d="m 654.07448,1.5826963 h 1.04456 q 3.3426,0 5.77991,5.2228119 3.8997,4.3871618 57.17238,73.1890048 0.5571,0 0.5571,0.766012 l 0.20891,0.27855 h 0.27855 V 6.3180458 q 0.90529,-4.7353495 4.73535,-4.7353495 h 0.76601 q 3.8997,0 4.73535,4.9442619 V 96.011136 q 0,4.317524 -5.50136,5.222814 -2.99441,0 -9.19215,-9.192151 l -54.8047,-69.98568 v 74.163929 q 0,3.899702 -5.0139,4.735352 h -0.20892 q -4.03897,0 -5.01389,-5.222814 V 7.3626081 q 0.62673,-5.7799118 4.4568,-5.7799118 z"
         style="font-style:normal;font-variant:normal;font-weight:normal;font-stretch:normal;font-family:Comfortaa;-inkscape-font-specification:Comfortaa;stroke-width:3.56543994"
         id="path37" /><path
         d="m 770.50838,1.1648713 q 12.95257,0 21.58762,11.6990987 l 0.27855,1.1142 v 1.601662 q 0,3.412237 -5.08353,4.247887 -2.08913,0 -7.17266,-5.640637 -4.59608,-2.924774 -8.77433,-2.924774 h -1.60166 q -8.77433,0 -13.30076,9.331424 -1.04456,2.228399 -1.04456,4.526437 v 2.158762 q 0,10.097436 12.18656,14.623873 8.77432,0 18.94139,8.217224 9.81889,9.958162 9.81889,21.866173 0,14.623873 -12.53475,23.955297 -7.66012,5.292452 -16.99155,5.292452 -15.11133,0 -24.99986,-13.022213 l -0.5571,-2.158763 q 0.90529,-5.013899 5.08354,-5.013899 2.7855,0 7.17266,5.570999 6.54593,4.526437 11.97765,4.526437 h 2.36768 q 10.5849,0 17.06118,-11.977648 1.04456,-3.8997 1.04456,-5.84955 v -2.646224 q 0,-10.515262 -11.97764,-17.061186 L 760.41094,49.841478 Q 745.22997,41.136792 745.22997,27.000381 v -1.880212 q 0,-13.927499 14.90242,-21.7965354 5.571,-2.1587623 10.37599,-2.1587623 z"
         style="font-style:normal;font-variant:normal;font-weight:normal;font-stretch:normal;font-family:Comfortaa;-inkscape-font-specification:Comfortaa;stroke-width:3.56543994"
         id="path39" /></g></g></svg>